#!OML:ASF F:\VICON\USERDATA\INSTALL\rory3\rory3.ASF
:FULLY-SPECIFIED
:DEGREES
18
root 0.3616090000000005 17.8699 -20.576999999999963 -2.57157 3.3328900000000097 -0.9144389999999976
lfemur 11.306099999999967 -3.4306000000000005 -22.707800000000006
ltibia 32.2907
lfoot -6.98736 -8.770309999999988
ltoes -20.371400000000015
rfemur -25.162699999999973 1.42978 24.443799999999996
rtibia 26.928199999999997
rfoot -4.0243400000000005 -6.86872
rtoes 0.37212899999999793
lowerback 10.8706 -1.5697400000000021 -2.8293600000000056
upperback -0.22856999999999977 -2.2875499999999986 2.57944
thorax -6.12859 -0.9949909999999972 4.682099999999997
lowerneck -15.024499999999996 -2.5323699999999976 -2.13706
upperneck 22.2184 -2.990779999999998 -0.07704819999999679
head 9.53106 -1.5841499999999997 -0.04494199999999973
lclavicle 1.0312000000000066e-15 1.749309999999998e-14
lhumerus -24.407500000000006 1.4782200000000012 83.6559
lradius 28.397399999999998
lwrist 6.045959999999999
lhand -33.172900000000006 14.804400000000003
lfingers nan
lthumb -6.381129999999992 44.688199999999995
rclavicle 1.0312000000000066e-15 1.749309999999998e-14
rhumerus -41.16769999999998 -33.0882 -66.0153
rradius 17.95760000000002
rwrist 15.411599999999991
rhand -18.1349 21.7492
rfingers nan
rthumb 8.14012 -8.074
19
root 0.3256700000000005 17.9489 -19.96580000000005 -2.93812 2.7384600000000034 -1.0951999999999997
lfemur 8.930350000000027 -2.0134400000000006 -21.6371
ltibia 38.5048
lfoot 2.050310000000014 -12.79949999999999
ltoes -18.99279999999999
rfemur -23.434100000000008 1.4074800000000012 25.124000000000002
rtibia 28.574799999999975
rfoot -5.354159999999997 -7.208759999999997
rtoes 6.398809999999995
lowerback 10.367699999999997 -1.1643799999999982 -2.339010000000007
upperback 0.19621399999999994 -1.700219999999996 2.2386599999999994
thorax -5.478009999999999 -0.747145 3.92133
lowerneck -15.8929 -2.8221 -1.6490399999999994
upperneck 22.5007 -3.5077800000000012 -0.06863979999999703
head 9.78886 -1.77785 -0.20512900000000098
lclavicle 9.790140000000008e-15 -1.192709999999999e-14
lhumerus -25.088600000000007 1.2777899999999986 83.8047
lradius 28.68
lwrist 6.489220000000001
lhand -32.29879999999999 20.0955
lfingers nan
lthumb -5.537260000000002 50.0031
rclavicle 9.790140000000008e-15 -1.192709999999999e-14
rhumerus -41.372499999999995 -34.59699999999998 -65.94180000000001
rradius 18.056899999999974
rwrist 16.14390000000001
rhand -17.0292 22.6563
rfingers nan
rthumb 9.207190000000002 -7.12269
20
root 0.28447399999999967 18.0204 -19.386000000000024 -3.5479600000000007 2.765640000000003 -2.31696
lfemur 5.61053000000002 -1.276369999999999 -19.3021
ltibia 45.27240000000002
lfoot 11.50529999999998 -16.702800000000018
ltoes -18.30890000000001
rfemur -20.95330000000001 1.1917999999999993 26.9315
rtibia 28.62900000000002
rfoot -5.669820000000003 -7.215910000000001
rtoes 3.821410000000002
lowerback 10.6789 -1.3953900000000008 -1.6491599999999973
upperback 0.1785439999999997 -1.8858600000000025 2.9415900000000015
thorax -5.654870000000001 -0.8439029999999991 4.313020000000004
lowerneck -15.4074 -2.6866100000000004 -2.3028699999999995
upperneck 22.2774 -3.139150000000001 -0.13430400000000087
head 9.62779 -1.6723699999999995 -0.06206879999999951
lclavicle 1.7368799999999973e-14 -1.7095499999999978e-14
lhumerus -26.881900000000012 2.698740000000001 84.3401
lradius 29.3434
lwrist 6.687669999999999
lhand -32.2387 21.073199999999996
lfingers nan
lthumb -5.479170000000003 50.9824
rclavicle 1.7368799999999973e-14 -1.7095499999999978e-14
rhumerus -40.17210000000001 -31.062699999999978 -67.9886
rradius 18.857300000000002
rwrist 13.450800000000005
rhand -17.4316 21.450999999999997
rfingers nan
rthumb 8.81887 -8.344780000000004
21
root 0.33921826879193806 18.02080706787948 -0.06673629839866102 -0.802792371484542 -1.4707167383159043 -7.474863690013866
lfemur -4.132365755344596 -0.9061754042195205 -11.745110376617337
ltibia 55.35626647385432
lfoot 3.6804031480804777 -7.242916456081815
ltoes -11.328950363454155
rfemur -8.639831530052987 2.8281661861479583 32.43115862998449
rtibia 20.662922220851147
rfoot -7.755810306289217 -10.500673336926019
rtoes 7.982675619467893
lowerback 10.987742202181858 0.11697888706494317 3.802766525700454
upperback 0.06276898102784352 1.2970771293393506 2.747092907774927
thorax -6.4756363939411825 0.5135159311482955 1.1464521022775533
lowerneck -16.185871301010565 -2.9447935112855066 -1.492759153405034
upperneck 22.69820139394022 -3.8084889117755365 0.011085495249650634
head 10.023293895289555 -1.9216428837052681 -0.1853483006459112
lclavicle -2.5216105947769613e-15 -2.7388368916473888e-15
lhumerus -30.015554438362674 -0.8728204410092322 84.0737130295692
lradius 25.74837798755334
lwrist 9.04702494686445
lhand -30.155467677610556 17.846993182350815
lfingers nan
lthumb -3.2885643895775996 48.45864524054451
rclavicle -2.490071665337129e-15 -2.722592451070299e-15
rhumerus -36.226937345980346 -30.925838361525138 -70.19226131110383
rradius 19.799519503693205
rwrist 7.404120300862496
rhand -17.366094087783818 22.89583627642315
rfingers nan
rthumb 8.700958175191635 -7.422580604685408
